<?xml version="1.0" encoding="utf-8"?><svg width="119" height="81" viewBox="0 0 119 81" xmlns="http://www.w3.org/2000/svg" xmlns:xlink="http://www.w3.org/1999/xlink"><svg width="14" height="12" fill="none" viewBox="0 0 14 12" id="check" xmlns="http://www.w3.org/2000/svg"><path d="M2 6.228L5.62 9 12 2" stroke="#CFA968" stroke-width="3" stroke-linecap="round"/></svg><svg width="14" height="8" fill="none" viewBox="0 0 14 8" id="down" x="14" y="12" xmlns="http://www.w3.org/2000/svg"><path d="M1 1l6 6 6-6" stroke="#2B2B3E" stroke-width="2" stroke-linejoin="round"/></svg><svg width="13" height="3" fill="none" viewBox="0 0 13 3" id="minus" x="28" y="20" xmlns="http://www.w3.org/2000/svg"><path fill-rule="evenodd" clip-rule="evenodd" d="M12 2H1V1h11v1z" fill="currentColor" stroke="currentColor" stroke-width=".5"/></svg><svg width="13" height="3" fill="none" viewBox="0 0 13 3" id="minus-d" x="41" y="23" xmlns="http://www.w3.org/2000/svg"><path fill-rule="evenodd" clip-rule="evenodd" d="M12 2H1V1h11v1z" fill="#BAB8B5" stroke="#BAB8B5" stroke-width=".5"/></svg><svg width="13" height="3" fill="none" viewBox="0 0 13 3" id="minus-h" x="54" y="26" xmlns="http://www.w3.org/2000/svg"><path fill-rule="evenodd" clip-rule="evenodd" d="M12 2H1V1h11v1z" fill="#2B2B3E" stroke="#2B2B3E" stroke-width="1.5"/></svg><svg width="13" height="13" fill="none" viewBox="0 0 13 13" id="plus" x="67" y="29" xmlns="http://www.w3.org/2000/svg"><path fill-rule="evenodd" clip-rule="evenodd" d="M12 6.923H1v-.846h11v.846z" fill="currentColor" stroke="currentColor" stroke-width=".5"/><path fill-rule="evenodd" clip-rule="evenodd" d="M6.077 12V1h.846v11h-.846z" fill="currentColor" stroke="currentColor" stroke-width=".5"/></svg><svg width="13" height="13" fill="none" viewBox="0 0 13 13" id="plus-h" x="80" y="42" xmlns="http://www.w3.org/2000/svg"><path fill-rule="evenodd" clip-rule="evenodd" d="M12 6.923H1v-.846h11v.846z" fill="#2B2B3E" stroke="#2B2B3E" stroke-width="1.5"/><path fill-rule="evenodd" clip-rule="evenodd" d="M6.077 12V1h.846v11h-.846z" fill="#2B2B3E" stroke="#2B2B3E" stroke-width="1.5"/></svg><svg width="26" height="26" fill="none" viewBox="0 0 26 26" id="popup-close" x="93" y="55" xmlns="http://www.w3.org/2000/svg"><path d="M25.276 23.26L2.648.633l-1.94 1.94L23.337 25.2l1.94-1.94z" fill="#272526"/><path d="M23.338.632L.711 23.26l1.94 1.94L25.278 2.572l-1.94-1.94z" fill="#272526"/></svg></svg>