<?xml version="1.0" encoding="utf-8"?><svg width="723" height="231" viewBox="0 0 723 231" xmlns="http://www.w3.org/2000/svg" xmlns:xlink="http://www.w3.org/1999/xlink"><svg width="14" height="12" fill="none" viewBox="0 0 14 12" id="check" xmlns="http://www.w3.org/2000/svg"><path d="M2 6.228L5.62 9 12 2" stroke="#CFA968" stroke-width="3" stroke-linecap="round"/></svg><svg width="14" height="8" fill="none" viewBox="0 0 14 8" id="down" x="14" y="12" xmlns="http://www.w3.org/2000/svg"><path d="M1 1l6 6 6-6" stroke="#2B2B3E" stroke-width="2" stroke-linejoin="round"/></svg><svg width="94" height="24" fill="none" viewBox="0 0 94 24" id="download" x="28" y="20" xmlns="http://www.w3.org/2000/svg"><path d="M38.144 18.24c-.779 0-1.488-.128-2.128-.384a4.526 4.526 0 01-1.648-1.12c-.459-.49-.816-1.093-1.072-1.808-.245-.725-.368-1.552-.368-2.48 0-.928.139-1.75.416-2.464.288-.725.672-1.333 1.152-1.824.48-.49 1.04-.864 1.68-1.12a5.463 5.463 0 012.048-.384c.459 0 .87.032 1.232.096.373.064.693.139.96.224a4.5 4.5 0 01.672.256c.17.085.288.15.352.192l-.448 1.28a2.483 2.483 0 00-.416-.208 8.098 8.098 0 00-.624-.224 4.59 4.59 0 00-.752-.176 4.151 4.151 0 00-.816-.08 3.95 3.95 0 00-1.584.304 3.27 3.27 0 00-1.2.88c-.33.384-.587.853-.768 1.408a6.157 6.157 0 00-.256 1.84c0 .661.075 1.264.224 1.808.16.544.395 1.013.704 1.408.31.384.693.683 1.152.896.47.213 1.013.32 1.632.32.715 0 1.307-.075 1.776-.224.47-.15.821-.283 1.056-.4l.4 1.28a2.536 2.536 0 01-.4.208c-.192.075-.432.15-.72.224a9.099 9.099 0 01-2.256.272zm8.418-4.768c.33.235.688.533 1.072.896.384.352.757.736 1.12 1.152.373.416.72.843 1.04 1.28.32.427.592.827.816 1.2h-1.76c-.235-.363-.512-.73-.832-1.104a16.06 16.06 0 00-.976-1.104 14.708 14.708 0 00-1.04-.976c-.352-.299-.683-.55-.992-.752V18h-1.488V9.68h1.488v3.568c.256-.245.55-.528.88-.848l.992-.992c.341-.341.656-.661.944-.96.288-.31.523-.565.704-.768h1.728c-.235.256-.512.55-.832.88-.31.32-.635.65-.976.992l-.992 1.024-.896.896zm8.69 3.456c.352 0 .661-.005.928-.016.277-.021.506-.053.688-.096v-2.48c-.107-.053-.283-.096-.528-.128a4.927 4.927 0 00-.864-.064c-.224 0-.464.016-.72.048a2.148 2.148 0 00-.688.208 1.382 1.382 0 00-.512.416c-.139.17-.208.4-.208.688 0 .533.17.907.512 1.12.341.203.805.304 1.392.304zm-.128-7.456c.597 0 1.098.08 1.504.24.416.15.746.368.992.656.256.277.437.613.544 1.008.106.384.16.81.16 1.28v5.2c-.128.021-.31.053-.544.096-.224.032-.48.064-.768.096a19.69 19.69 0 01-.944.08c-.331.032-.662.048-.992.048a5.48 5.48 0 01-1.296-.144 2.987 2.987 0 01-1.024-.448 2.152 2.152 0 01-.672-.832c-.16-.341-.24-.752-.24-1.232 0-.459.09-.853.272-1.184.192-.33.448-.597.768-.8a3.52 3.52 0 011.12-.448 6.108 6.108 0 011.344-.144c.149 0 .304.01.464.032.16.01.309.032.448.064a7.133 7.133 0 01.608.112v-.416c0-.245-.027-.485-.08-.72a1.595 1.595 0 00-.288-.64 1.36 1.36 0 00-.576-.448c-.235-.117-.544-.176-.928-.176-.491 0-.923.037-1.296.112-.363.064-.635.133-.816.208l-.176-1.232c.192-.085.512-.165.96-.24a7.788 7.788 0 011.456-.128zm6.935.208v2.448c0 .63.16 1.072.48 1.328.32.245.757.368 1.312.368.405 0 .741-.021 1.008-.064.277-.043.523-.09.736-.144V9.68h1.488V18h-1.488v-3.232a20.01 20.01 0 01-.336.08 9.523 9.523 0 01-.48.096c-.17.021-.352.043-.544.064a5.08 5.08 0 01-.56.032c-.459 0-.88-.048-1.264-.144a2.536 2.536 0 01-.976-.48 2.38 2.38 0 01-.64-.88c-.15-.373-.224-.837-.224-1.392V9.68h1.488zm10.723 7.248c.352 0 .662-.005.928-.016.278-.021.507-.053.688-.096v-2.48c-.106-.053-.282-.096-.528-.128a4.927 4.927 0 00-.864-.064c-.224 0-.464.016-.72.048a2.148 2.148 0 00-.688.208 1.382 1.382 0 00-.512.416c-.138.17-.208.4-.208.688 0 .533.17.907.512 1.12.342.203.806.304 1.392.304zm-.128-7.456c.598 0 1.099.08 1.504.24.416.15.747.368.992.656.256.277.438.613.544 1.008.107.384.16.81.16 1.28v5.2c-.128.021-.31.053-.544.096-.224.032-.48.064-.768.096a19.69 19.69 0 01-.944.08c-.33.032-.661.048-.992.048a5.48 5.48 0 01-1.296-.144 2.987 2.987 0 01-1.024-.448 2.152 2.152 0 01-.672-.832c-.16-.341-.24-.752-.24-1.232 0-.459.09-.853.272-1.184.192-.33.448-.597.768-.8a3.52 3.52 0 011.12-.448 6.108 6.108 0 011.344-.144c.15 0 .304.01.464.032.16.01.31.032.448.064a7.133 7.133 0 01.608.112v-.416c0-.245-.026-.485-.08-.72a1.595 1.595 0 00-.288-.64 1.36 1.36 0 00-.576-.448c-.234-.117-.544-.176-.928-.176-.49 0-.922.037-1.296.112-.362.064-.634.133-.816.208l-.176-1.232c.192-.085.512-.165.96-.24a7.788 7.788 0 011.456-.128zm11.864.208v1.248h-2.704V18h-1.488v-7.072h-2.704V9.68h6.896zm5.006 7.28c.63 0 1.125-.123 1.488-.368.362-.245.544-.64.544-1.184 0-.267-.053-.496-.16-.688a1.246 1.246 0 00-.448-.464 1.735 1.735 0 00-.64-.272 3.096 3.096 0 00-.784-.096c-.288 0-.587.01-.896.032-.299.01-.555.043-.768.096v2.864c.064.01.16.021.288.032l.416.032c.16 0 .32.005.48.016h.48zm-3.152.864V9.68h1.488v3.184a3.81 3.81 0 01.336-.064c.15-.021.304-.043.464-.064a8.124 8.124 0 011.04-.064c.459 0 .89.053 1.296.16a2.82 2.82 0 011.056.48c.31.213.554.496.736.848.181.341.272.752.272 1.232 0 .501-.085.928-.256 1.28a2.22 2.22 0 01-.736.864c-.32.224-.704.384-1.152.48a6.21 6.21 0 01-1.472.16 12.63 12.63 0 01-1.568-.096 11.647 11.647 0 01-1.504-.256z" fill="#2B2B3E"/><path d="M1 15.5v6h20.5v-6" stroke="#2B2B3E" stroke-linejoin="round"/><path d="M11.353 0v17.5m0 0L17 12m-5.647 5.5L5.5 12" stroke="#2B2B3E"/></svg><svg width="94" height="24" fill="none" viewBox="0 0 94 24" id="download-d" x="122" y="44" xmlns="http://www.w3.org/2000/svg"><path d="M38.144 18.24c-.779 0-1.488-.128-2.128-.384a4.526 4.526 0 01-1.648-1.12c-.459-.49-.816-1.093-1.072-1.808-.245-.725-.368-1.552-.368-2.48 0-.928.139-1.75.416-2.464.288-.725.672-1.333 1.152-1.824.48-.49 1.04-.864 1.68-1.12a5.463 5.463 0 012.048-.384c.459 0 .87.032 1.232.096.373.064.693.139.96.224a4.5 4.5 0 01.672.256c.17.085.288.15.352.192l-.448 1.28a2.483 2.483 0 00-.416-.208 8.098 8.098 0 00-.624-.224 4.59 4.59 0 00-.752-.176 4.151 4.151 0 00-.816-.08 3.95 3.95 0 00-1.584.304 3.27 3.27 0 00-1.2.88c-.33.384-.587.853-.768 1.408a6.157 6.157 0 00-.256 1.84c0 .661.075 1.264.224 1.808.16.544.395 1.013.704 1.408.31.384.693.683 1.152.896.47.213 1.013.32 1.632.32.715 0 1.307-.075 1.776-.224.47-.15.821-.283 1.056-.4l.4 1.28a2.536 2.536 0 01-.4.208c-.192.075-.432.15-.72.224a9.099 9.099 0 01-2.256.272zm8.418-4.768c.33.235.688.533 1.072.896.384.352.757.736 1.12 1.152.373.416.72.843 1.04 1.28.32.427.592.827.816 1.2h-1.76c-.235-.363-.512-.73-.832-1.104a16.06 16.06 0 00-.976-1.104 14.708 14.708 0 00-1.04-.976c-.352-.299-.683-.55-.992-.752V18h-1.488V9.68h1.488v3.568c.256-.245.55-.528.88-.848l.992-.992c.341-.341.656-.661.944-.96.288-.31.523-.565.704-.768h1.728c-.235.256-.512.55-.832.88-.31.32-.635.65-.976.992l-.992 1.024-.896.896zm8.69 3.456c.352 0 .661-.005.928-.016.277-.021.506-.053.688-.096v-2.48c-.107-.053-.283-.096-.528-.128a4.927 4.927 0 00-.864-.064c-.224 0-.464.016-.72.048a2.148 2.148 0 00-.688.208 1.382 1.382 0 00-.512.416c-.139.17-.208.4-.208.688 0 .533.17.907.512 1.12.341.203.805.304 1.392.304zm-.128-7.456c.597 0 1.098.08 1.504.24.416.15.746.368.992.656.256.277.437.613.544 1.008.106.384.16.81.16 1.28v5.2c-.128.021-.31.053-.544.096-.224.032-.48.064-.768.096a19.69 19.69 0 01-.944.08c-.331.032-.662.048-.992.048a5.48 5.48 0 01-1.296-.144 2.987 2.987 0 01-1.024-.448 2.152 2.152 0 01-.672-.832c-.16-.341-.24-.752-.24-1.232 0-.459.09-.853.272-1.184.192-.33.448-.597.768-.8a3.52 3.52 0 011.12-.448 6.108 6.108 0 011.344-.144c.149 0 .304.01.464.032.16.01.309.032.448.064a7.133 7.133 0 01.608.112v-.416c0-.245-.027-.485-.08-.72a1.595 1.595 0 00-.288-.64 1.36 1.36 0 00-.576-.448c-.235-.117-.544-.176-.928-.176-.491 0-.923.037-1.296.112-.363.064-.635.133-.816.208l-.176-1.232c.192-.085.512-.165.96-.24a7.788 7.788 0 011.456-.128zm6.935.208v2.448c0 .63.16 1.072.48 1.328.32.245.757.368 1.312.368.405 0 .741-.021 1.008-.064.277-.043.523-.09.736-.144V9.68h1.488V18h-1.488v-3.232a20.01 20.01 0 01-.336.08 9.523 9.523 0 01-.48.096c-.17.021-.352.043-.544.064a5.08 5.08 0 01-.56.032c-.459 0-.88-.048-1.264-.144a2.536 2.536 0 01-.976-.48 2.38 2.38 0 01-.64-.88c-.15-.373-.224-.837-.224-1.392V9.68h1.488zm10.723 7.248c.352 0 .662-.005.928-.016.278-.021.507-.053.688-.096v-2.48c-.106-.053-.282-.096-.528-.128a4.927 4.927 0 00-.864-.064c-.224 0-.464.016-.72.048a2.148 2.148 0 00-.688.208 1.382 1.382 0 00-.512.416c-.138.17-.208.4-.208.688 0 .533.17.907.512 1.12.342.203.806.304 1.392.304zm-.128-7.456c.598 0 1.099.08 1.504.24.416.15.747.368.992.656.256.277.438.613.544 1.008.107.384.16.81.16 1.28v5.2c-.128.021-.31.053-.544.096-.224.032-.48.064-.768.096a19.69 19.69 0 01-.944.08c-.33.032-.661.048-.992.048a5.48 5.48 0 01-1.296-.144 2.987 2.987 0 01-1.024-.448 2.152 2.152 0 01-.672-.832c-.16-.341-.24-.752-.24-1.232 0-.459.09-.853.272-1.184.192-.33.448-.597.768-.8a3.52 3.52 0 011.12-.448 6.108 6.108 0 011.344-.144c.15 0 .304.01.464.032.16.01.31.032.448.064a7.133 7.133 0 01.608.112v-.416c0-.245-.026-.485-.08-.72a1.595 1.595 0 00-.288-.64 1.36 1.36 0 00-.576-.448c-.234-.117-.544-.176-.928-.176-.49 0-.922.037-1.296.112-.362.064-.634.133-.816.208l-.176-1.232c.192-.085.512-.165.96-.24a7.788 7.788 0 011.456-.128zm11.864.208v1.248h-2.704V18h-1.488v-7.072h-2.704V9.68h6.896zm5.006 7.28c.63 0 1.125-.123 1.488-.368.362-.245.544-.64.544-1.184 0-.267-.053-.496-.16-.688a1.246 1.246 0 00-.448-.464 1.735 1.735 0 00-.64-.272 3.096 3.096 0 00-.784-.096c-.288 0-.587.01-.896.032-.299.01-.555.043-.768.096v2.864c.064.01.16.021.288.032l.416.032c.16 0 .32.005.48.016h.48zm-3.152.864V9.68h1.488v3.184a3.81 3.81 0 01.336-.064c.15-.021.304-.043.464-.064a8.124 8.124 0 011.04-.064c.459 0 .89.053 1.296.16a2.82 2.82 0 011.056.48c.31.213.554.496.736.848.181.341.272.752.272 1.232 0 .501-.085.928-.256 1.28a2.22 2.22 0 01-.736.864c-.32.224-.704.384-1.152.48a6.21 6.21 0 01-1.472.16 12.63 12.63 0 01-1.568-.096 11.647 11.647 0 01-1.504-.256z" fill="#D2D2D7"/><path d="M1 15.5v6h20.5v-6" stroke="#D2D2D7" stroke-linejoin="round"/><path d="M11.353 0v17.5m0 0L17 12m-5.647 5.5L5.5 12" stroke="#D2D2D7"/></svg><svg width="96" height="24" fill="none" viewBox="0 0 96 24" id="download-h" x="216" y="68" xmlns="http://www.w3.org/2000/svg"><path d="M38.256 18.24c-.832 0-1.579-.128-2.24-.384a4.474 4.474 0 01-1.68-1.12 5.129 5.129 0 01-1.056-1.824c-.245-.715-.368-1.536-.368-2.464 0-.928.139-1.75.416-2.464a5.343 5.343 0 011.168-1.808 4.828 4.828 0 011.728-1.136 5.843 5.843 0 012.128-.384c.459 0 .875.037 1.248.112.373.064.699.139.976.224.277.085.507.176.688.272.181.096.31.165.384.208l-.592 1.648c-.256-.16-.624-.31-1.104-.448a5.042 5.042 0 00-1.536-.224 3.5 3.5 0 00-1.344.256 2.89 2.89 0 00-1.088.736c-.299.33-.533.747-.704 1.248-.17.501-.256 1.083-.256 1.744 0 .587.064 1.125.192 1.616.139.49.347.917.624 1.28.277.352.63.63 1.056.832.427.192.939.288 1.536.288.715 0 1.296-.07 1.744-.208.448-.15.795-.288 1.04-.416l.544 1.648c-.128.085-.304.17-.528.256-.213.085-.47.17-.768.256a7.858 7.858 0 01-1.008.176 8.5 8.5 0 01-1.2.08zm7.435-5.248c.245-.245.512-.517.8-.816.288-.31.57-.619.848-.928l.816-.88a37.2 37.2 0 00.64-.736h2.272a25.03 25.03 0 01-.816.912A88.352 88.352 0 0147.5 13.44c.33.277.672.603 1.024.976.363.363.715.752 1.056 1.168.352.405.678.821.976 1.248.299.416.55.805.752 1.168h-2.24c-.203-.32-.443-.656-.72-1.008-.267-.352-.55-.693-.848-1.024a15.728 15.728 0 00-.912-.96 9.097 9.097 0 00-.896-.768V18h-1.936V9.632h1.936v3.36zm10.281 3.648c.598 0 1.05-.032 1.36-.096V14.4a4.325 4.325 0 00-1.136-.144 4.64 4.64 0 00-.656.048c-.213.032-.41.09-.592.176-.17.085-.31.208-.416.368a.973.973 0 00-.16.576c0 .459.144.779.432.96.288.17.678.256 1.168.256zm-.16-7.216c.64 0 1.179.08 1.616.24.438.16.784.384 1.04.672.267.288.454.64.56 1.056.118.405.176.853.176 1.344v5.072c-.298.064-.752.139-1.36.224a12.89 12.89 0 01-2.032.144c-.501 0-.96-.048-1.376-.144a2.973 2.973 0 01-1.072-.464 2.29 2.29 0 01-.688-.832c-.16-.341-.24-.763-.24-1.264 0-.48.09-.885.272-1.216.192-.33.448-.597.768-.8.32-.213.688-.363 1.104-.448.427-.096.87-.144 1.328-.144.214 0 .438.016.672.048.235.021.486.064.752.128v-.32c0-.224-.026-.437-.08-.64a1.218 1.218 0 00-.288-.528 1.208 1.208 0 00-.528-.368c-.213-.085-.485-.128-.816-.128-.448 0-.858.032-1.232.096a5.422 5.422 0 00-.912.224l-.24-1.568c.246-.085.603-.17 1.072-.256.47-.085.97-.128 1.504-.128zm7.475 2.8c0 .512.144.875.432 1.088.299.203.704.304 1.216.304.245 0 .486-.01.72-.032a6.49 6.49 0 00.64-.112v-3.84h1.936V18h-1.936v-2.992l-.752.128a6.146 6.146 0 01-2.208-.08 2.82 2.82 0 01-1.056-.48 2.277 2.277 0 01-.688-.912c-.16-.384-.24-.859-.24-1.424V9.632h1.936v2.592zm10.669 4.416c.597 0 1.05-.032 1.36-.096V14.4a4.326 4.326 0 00-1.136-.144 4.64 4.64 0 00-.656.048c-.213.032-.41.09-.592.176-.17.085-.31.208-.416.368-.107.15-.16.341-.16.576 0 .459.144.779.432.96.288.17.677.256 1.168.256zm-.16-7.216c.64 0 1.179.08 1.616.24.437.16.784.384 1.04.672.267.288.453.64.56 1.056.117.405.176.853.176 1.344v5.072a20.87 20.87 0 01-1.36.224c-.597.096-1.275.144-2.032.144-.501 0-.96-.048-1.376-.144a2.973 2.973 0 01-1.072-.464 2.29 2.29 0 01-.688-.832c-.16-.341-.24-.763-.24-1.264 0-.48.09-.885.272-1.216.192-.33.448-.597.768-.8.32-.213.688-.363 1.104-.448.427-.096.87-.144 1.328-.144.213 0 .437.016.672.048.235.021.485.064.752.128v-.32c0-.224-.027-.437-.08-.64a1.218 1.218 0 00-.288-.528 1.208 1.208 0 00-.528-.368c-.213-.085-.485-.128-.816-.128a7.31 7.31 0 00-1.232.096 5.422 5.422 0 00-.912.224l-.24-1.568c.245-.085.603-.17 1.072-.256.47-.085.97-.128 1.504-.128zm12.387 1.824h-2.704V18h-1.936v-6.752h-2.688V9.632h7.328v1.616zm3.702 1.472c.16-.043.394-.08.704-.112.31-.032.618-.048.928-.048.48 0 .928.053 1.344.16.426.107.794.277 1.104.512.31.224.554.517.736.88.181.352.272.773.272 1.264 0 .501-.085.928-.256 1.28a2.22 2.22 0 01-.736.864c-.32.224-.704.39-1.152.496a6.21 6.21 0 01-1.472.16 15.1 15.1 0 01-1.76-.096 15.25 15.25 0 01-1.648-.288v-8.16h1.936v3.088zm1.424 3.936c.544 0 .965-.101 1.264-.304.31-.213.464-.55.464-1.008a1.04 1.04 0 00-.16-.592 1.066 1.066 0 00-.4-.384 1.55 1.55 0 00-.576-.224 3.754 3.754 0 00-.704-.064c-.224 0-.459.01-.704.032-.245.01-.448.037-.608.08v2.384a9 9 0 00.608.064c.277.01.55.016.816.016z" fill="#2B2B3E"/><path d="M1 15.5v6h20.5v-6" stroke="#2B2B3E" stroke-width="2" stroke-linejoin="round"/><path d="M11.353 0v17.5m0 0L17 12m-5.647 5.5L5.5 12" stroke="#2B2B3E" stroke-width="2"/></svg><svg width="13" height="3" fill="none" viewBox="0 0 13 3" id="minus" x="312" y="92" xmlns="http://www.w3.org/2000/svg"><path fill-rule="evenodd" clip-rule="evenodd" d="M12 2H1V1h11v1z" fill="currentColor" stroke="currentColor" stroke-width=".5"/></svg><svg width="13" height="3" fill="none" viewBox="0 0 13 3" id="minus-d" x="325" y="95" xmlns="http://www.w3.org/2000/svg"><path fill-rule="evenodd" clip-rule="evenodd" d="M12 2H1V1h11v1z" fill="#BAB8B5" stroke="#BAB8B5" stroke-width=".5"/></svg><svg width="13" height="3" fill="none" viewBox="0 0 13 3" id="minus-h" x="338" y="98" xmlns="http://www.w3.org/2000/svg"><path fill-rule="evenodd" clip-rule="evenodd" d="M12 2H1V1h11v1z" fill="#2B2B3E" stroke="#2B2B3E" stroke-width="1.5"/></svg><svg width="13" height="13" fill="none" viewBox="0 0 13 13" id="plus" x="351" y="101" xmlns="http://www.w3.org/2000/svg"><path fill-rule="evenodd" clip-rule="evenodd" d="M12 6.923H1v-.846h11v.846z" fill="currentColor" stroke="currentColor" stroke-width=".5"/><path fill-rule="evenodd" clip-rule="evenodd" d="M6.077 12V1h.846v11h-.846z" fill="currentColor" stroke="currentColor" stroke-width=".5"/></svg><svg width="13" height="13" fill="none" viewBox="0 0 13 13" id="plus-h" x="364" y="114" xmlns="http://www.w3.org/2000/svg"><path fill-rule="evenodd" clip-rule="evenodd" d="M12 6.923H1v-.846h11v.846z" fill="#2B2B3E" stroke="#2B2B3E" stroke-width="1.5"/><path fill-rule="evenodd" clip-rule="evenodd" d="M6.077 12V1h.846v11h-.846z" fill="#2B2B3E" stroke="#2B2B3E" stroke-width="1.5"/></svg><svg width="26" height="26" fill="none" viewBox="0 0 26 26" id="popup-close" x="377" y="127" xmlns="http://www.w3.org/2000/svg"><path d="M25.276 23.26L2.648.633l-1.94 1.94L23.337 25.2l1.94-1.94z" fill="#272526"/><path d="M23.338.632L.711 23.26l1.94 1.94L25.278 2.572l-1.94-1.94z" fill="#272526"/></svg><svg width="106" height="26" fill="none" viewBox="0 0 106 26" id="print" x="403" y="153" xmlns="http://www.w3.org/2000/svg"><path d="M4.12 22.5v-8.323h16.646V22.5H4.12zm.694-15.258V1h15.258v6.242H4.814zm3.815 10.056h7.629m-7.629 2.428h7.629" stroke="#2B2B3E"/><path d="M4.121 19.379H1V7.242h22.887v12.137h-3.12" stroke="#2B2B3E" stroke-linejoin="round"/><path fill="#2B2B3E" d="M20.766 9.323h1.04v1.04h-1.04zm24.042-.411V20h-1.552v-9.76h-5.328V20h-1.552V8.912h8.432zm2.516 6.944c0-.736.106-1.376.32-1.92.213-.555.495-1.013.848-1.376a3.442 3.442 0 011.216-.816 3.8 3.8 0 011.407-.272c1.12 0 1.98.352 2.576 1.056.598.693.896 1.755.896 3.184v.256c0 .096-.005.187-.016.272h-5.695c.064.864.314 1.52.752 1.968.437.448 1.12.672 2.047.672.523 0 .96-.043 1.313-.128a5.11 5.11 0 00.816-.272l.207 1.248c-.18.096-.5.197-.96.304a6.66 6.66 0 01-1.535.16c-.726 0-1.355-.107-1.889-.32a3.6 3.6 0 01-1.296-.912 3.791 3.791 0 01-.768-1.36 6.047 6.047 0 01-.24-1.744zm5.712-.816c.01-.672-.16-1.221-.513-1.648-.34-.437-.816-.656-1.424-.656-.34 0-.645.07-.911.208a2.06 2.06 0 00-.657.512 2.527 2.527 0 00-.431.736 3.96 3.96 0 00-.193.848h4.129zm4.953-3.36v2.448c0 .63.16 1.072.48 1.328.32.245.757.368 1.312.368.405 0 .741-.021 1.008-.064.277-.043.523-.09.736-.144V11.68h1.488V20h-1.488v-3.232a20.01 20.01 0 01-.336.08 9.523 9.523 0 01-.48.096c-.17.021-.352.043-.544.064a5.08 5.08 0 01-.56.032c-.459 0-.88-.048-1.264-.144a2.536 2.536 0 01-.976-.48 2.38 2.38 0 01-.64-.88c-.15-.373-.224-.837-.224-1.392V11.68h1.488zm10.723 7.248c.352 0 .662-.005.928-.016.278-.021.507-.053.688-.096v-2.48c-.106-.053-.282-.096-.528-.128a4.927 4.927 0 00-.864-.064c-.224 0-.464.016-.72.048a2.148 2.148 0 00-.688.208 1.382 1.382 0 00-.512.416c-.138.17-.208.4-.208.688 0 .533.17.907.512 1.12.342.203.806.304 1.392.304zm-.128-7.456c.598 0 1.099.08 1.504.24.416.15.747.368.992.656.256.277.438.613.544 1.008.107.384.16.81.16 1.28v5.2c-.128.021-.31.053-.544.096-.224.032-.48.064-.768.096a19.69 19.69 0 01-.944.08c-.33.032-.661.048-.992.048a5.48 5.48 0 01-1.296-.144 2.987 2.987 0 01-1.024-.448 2.152 2.152 0 01-.672-.832c-.16-.341-.24-.752-.24-1.232 0-.459.09-.853.272-1.184.192-.33.448-.597.768-.8a3.52 3.52 0 011.12-.448 6.108 6.108 0 011.344-.144c.15 0 .304.01.464.032.16.01.31.032.448.064a7.133 7.133 0 01.608.112v-.416c0-.245-.026-.485-.08-.72a1.595 1.595 0 00-.288-.64 1.36 1.36 0 00-.576-.448c-.234-.117-.544-.176-.928-.176-.49 0-.922.037-1.296.112-.362.064-.634.133-.816.208l-.176-1.232c.192-.085.512-.165.96-.24a7.79 7.79 0 011.456-.128zm11.864.208v1.248h-2.704V20h-1.488v-7.072h-2.704V11.68h6.896zm4.67 7.248c.352 0 .661-.005.928-.016a4.63 4.63 0 00.688-.096v-2.48c-.107-.053-.283-.096-.528-.128a4.929 4.929 0 00-.864-.064c-.224 0-.464.016-.72.048a2.146 2.146 0 00-.688.208 1.38 1.38 0 00-.512.416c-.139.17-.208.4-.208.688 0 .533.17.907.512 1.12.341.203.805.304 1.392.304zm-.128-7.456c.597 0 1.099.08 1.504.24.416.15.746.368.992.656.256.277.437.613.544 1.008.106.384.16.81.16 1.28v5.2c-.128.021-.31.053-.544.096-.224.032-.48.064-.768.096a19.7 19.7 0 01-.944.08c-.33.032-.662.048-.992.048a5.48 5.48 0 01-1.296-.144 2.986 2.986 0 01-1.024-.448 2.152 2.152 0 01-.672-.832c-.16-.341-.24-.752-.24-1.232 0-.459.09-.853.272-1.184.192-.33.448-.597.768-.8.32-.203.693-.352 1.12-.448a6.106 6.106 0 011.344-.144c.15 0 .304.01.464.032.16.01.31.032.448.064a7.167 7.167 0 01.608.112v-.416a3.24 3.24 0 00-.08-.72 1.598 1.598 0 00-.288-.64 1.36 1.36 0 00-.576-.448c-.235-.117-.544-.176-.928-.176-.49 0-.923.037-1.296.112-.363.064-.635.133-.816.208l-.176-1.232c.192-.085.512-.165.96-.24a7.79 7.79 0 011.456-.128zm11.863.208v1.248H94.15V20h-1.488v-7.072h-2.704V11.68h6.896zm5.007 7.28c.629 0 1.125-.123 1.488-.368.362-.245.544-.64.544-1.184 0-.267-.054-.496-.16-.688a1.248 1.248 0 00-.448-.464 1.742 1.742 0 00-.64-.272 3.101 3.101 0 00-.784-.096c-.288 0-.587.01-.896.032a3.76 3.76 0 00-.768.096v2.864c.064.01.16.021.288.032l.416.032c.16 0 .32.005.48.016h.48zm-3.153.864V11.68h1.489v3.184a3.81 3.81 0 01.336-.064c.149-.021.304-.043.464-.064a8.706 8.706 0 011.04-.064c.458 0 .89.053 1.296.16.405.096.757.256 1.056.48.309.213.554.496.736.848.181.341.272.752.272 1.232 0 .501-.086.928-.256 1.28-.171.352-.416.64-.736.864-.32.224-.704.384-1.152.48a6.21 6.21 0 01-1.472.16c-.534 0-1.056-.032-1.568-.096a11.643 11.643 0 01-1.505-.256z"/></svg><svg width="106" height="26" fill="none" viewBox="0 0 106 26" id="print-d" x="509" y="179" xmlns="http://www.w3.org/2000/svg"><path d="M4.12 22.5v-8.323h16.646V22.5H4.121zm.694-15.258V1h15.259v6.242H4.814zM8.63 17.298h7.628M8.63 19.726h7.628" stroke="#D2D2D7"/><path d="M4.121 19.379H1V7.242h22.887v12.137h-3.12" stroke="#D2D2D7" stroke-linejoin="round"/><path fill="#D2D2D7" d="M20.766 9.323h1.04v1.04h-1.04zm24.042-.411V20h-1.552v-9.76h-5.328V20h-1.552V8.912h8.432zm2.516 6.944c0-.736.106-1.376.32-1.92.213-.555.495-1.013.848-1.376a3.442 3.442 0 011.216-.816 3.8 3.8 0 011.407-.272c1.12 0 1.98.352 2.576 1.056.598.693.896 1.755.896 3.184v.256c0 .096-.005.187-.016.272h-5.695c.064.864.314 1.52.752 1.968.437.448 1.12.672 2.047.672.523 0 .96-.043 1.313-.128a5.11 5.11 0 00.816-.272l.207 1.248c-.18.096-.5.197-.96.304a6.66 6.66 0 01-1.535.16c-.726 0-1.355-.107-1.889-.32a3.6 3.6 0 01-1.296-.912 3.791 3.791 0 01-.768-1.36 6.047 6.047 0 01-.24-1.744zm5.712-.816c.01-.672-.16-1.221-.513-1.648-.34-.437-.816-.656-1.424-.656-.34 0-.645.07-.911.208a2.06 2.06 0 00-.657.512 2.527 2.527 0 00-.431.736 3.96 3.96 0 00-.193.848h4.129zm4.953-3.36v2.448c0 .63.16 1.072.48 1.328.32.245.757.368 1.312.368.405 0 .741-.021 1.008-.064.277-.043.523-.09.736-.144V11.68h1.488V20h-1.488v-3.232a20.01 20.01 0 01-.336.08 9.523 9.523 0 01-.48.096c-.17.021-.352.043-.544.064a5.08 5.08 0 01-.56.032c-.459 0-.88-.048-1.264-.144a2.536 2.536 0 01-.976-.48 2.38 2.38 0 01-.64-.88c-.15-.373-.224-.837-.224-1.392V11.68h1.488zm10.723 7.248c.352 0 .662-.005.928-.016.278-.021.507-.053.688-.096v-2.48c-.106-.053-.282-.096-.528-.128a4.927 4.927 0 00-.864-.064c-.224 0-.464.016-.72.048a2.148 2.148 0 00-.688.208 1.382 1.382 0 00-.512.416c-.138.17-.208.4-.208.688 0 .533.17.907.512 1.12.342.203.806.304 1.392.304zm-.128-7.456c.598 0 1.099.08 1.504.24.416.15.747.368.992.656.256.277.438.613.544 1.008.107.384.16.81.16 1.28v5.2c-.128.021-.31.053-.544.096-.224.032-.48.064-.768.096a19.69 19.69 0 01-.944.08c-.33.032-.661.048-.992.048a5.48 5.48 0 01-1.296-.144 2.987 2.987 0 01-1.024-.448 2.152 2.152 0 01-.672-.832c-.16-.341-.24-.752-.24-1.232 0-.459.09-.853.272-1.184.192-.33.448-.597.768-.8a3.52 3.52 0 011.12-.448 6.108 6.108 0 011.344-.144c.15 0 .304.01.464.032.16.01.31.032.448.064a7.133 7.133 0 01.608.112v-.416c0-.245-.026-.485-.08-.72a1.595 1.595 0 00-.288-.64 1.36 1.36 0 00-.576-.448c-.234-.117-.544-.176-.928-.176-.49 0-.922.037-1.296.112-.362.064-.634.133-.816.208l-.176-1.232c.192-.085.512-.165.96-.24a7.79 7.79 0 011.456-.128zm11.864.208v1.248h-2.704V20h-1.488v-7.072h-2.704V11.68h6.896zm4.67 7.248c.352 0 .661-.005.928-.016a4.63 4.63 0 00.688-.096v-2.48c-.107-.053-.283-.096-.528-.128a4.929 4.929 0 00-.864-.064c-.224 0-.464.016-.72.048a2.146 2.146 0 00-.688.208 1.38 1.38 0 00-.512.416c-.139.17-.208.4-.208.688 0 .533.17.907.512 1.12.341.203.805.304 1.392.304zm-.128-7.456c.597 0 1.099.08 1.504.24.416.15.746.368.992.656.256.277.437.613.544 1.008.106.384.16.81.16 1.28v5.2c-.128.021-.31.053-.544.096-.224.032-.48.064-.768.096a19.7 19.7 0 01-.944.08c-.33.032-.662.048-.992.048a5.48 5.48 0 01-1.296-.144 2.986 2.986 0 01-1.024-.448 2.152 2.152 0 01-.672-.832c-.16-.341-.24-.752-.24-1.232 0-.459.09-.853.272-1.184.192-.33.448-.597.768-.8.32-.203.693-.352 1.12-.448a6.106 6.106 0 011.344-.144c.15 0 .304.01.464.032.16.01.31.032.448.064a7.167 7.167 0 01.608.112v-.416a3.24 3.24 0 00-.08-.72 1.598 1.598 0 00-.288-.64 1.36 1.36 0 00-.576-.448c-.235-.117-.544-.176-.928-.176-.49 0-.923.037-1.296.112-.363.064-.635.133-.816.208l-.176-1.232c.192-.085.512-.165.96-.24a7.79 7.79 0 011.456-.128zm11.863.208v1.248H94.15V20h-1.488v-7.072h-2.704V11.68h6.896zm5.007 7.28c.629 0 1.125-.123 1.488-.368.362-.245.544-.64.544-1.184 0-.267-.054-.496-.16-.688a1.248 1.248 0 00-.448-.464 1.742 1.742 0 00-.64-.272 3.101 3.101 0 00-.784-.096c-.288 0-.587.01-.896.032a3.76 3.76 0 00-.768.096v2.864c.064.01.16.021.288.032l.416.032c.16 0 .32.005.48.016h.48zm-3.153.864V11.68h1.489v3.184a3.81 3.81 0 01.336-.064c.149-.021.304-.043.464-.064a8.706 8.706 0 011.04-.064c.458 0 .89.053 1.296.16.405.096.757.256 1.056.48.309.213.554.496.736.848.181.341.272.752.272 1.232 0 .501-.086.928-.256 1.28-.171.352-.416.64-.736.864-.32.224-.704.384-1.152.48a6.21 6.21 0 01-1.472.16c-.534 0-1.056-.032-1.568-.096a11.643 11.643 0 01-1.505-.256z"/></svg><svg width="108" height="26" fill="none" viewBox="0 0 108 26" id="print-h" x="615" y="205" xmlns="http://www.w3.org/2000/svg"><path d="M4.12 22.5v-8.323h16.646V22.5H4.12zm.694-15.258V1h15.258v6.242H4.814z" stroke="#2B2B3E" stroke-width="2"/><path d="M8.629 17.298h7.629m-7.629 2.428h7.629" stroke="#2B2B3E"/><path d="M4.121 19.379H1V7.242h22.887v12.137h-3.12" stroke="#2B2B3E" stroke-width="2" stroke-linejoin="round"/><path fill="#2B2B3E" d="M20.766 9.323h1.04v1.04h-1.04zm24.33-.411V20H43.08v-9.36h-4.736V20h-2.016V8.912h8.768zm2.414 6.944c0-.736.107-1.381.32-1.936.224-.555.517-1.013.88-1.376.362-.373.779-.65 1.248-.832a3.77 3.77 0 011.44-.288c1.152 0 2.048.357 2.688 1.072.65.715.976 1.781.976 3.2 0 .107-.005.23-.016.368 0 .128-.005.245-.016.352h-5.52c.053.672.288 1.195.704 1.568.427.363 1.04.544 1.84.544.47 0 .896-.043 1.28-.128a5.28 5.28 0 00.928-.272l.256 1.584a3.58 3.58 0 01-.448.176 5.863 5.863 0 01-.64.144 7.394 7.394 0 01-1.616.176c-.736 0-1.376-.107-1.92-.32a3.702 3.702 0 01-1.344-.912 3.824 3.824 0 01-.784-1.376 5.694 5.694 0 01-.256-1.744zm5.616-.864c0-.267-.037-.517-.112-.752a1.674 1.674 0 00-.336-.624 1.352 1.352 0 00-.528-.416 1.563 1.563 0 00-.736-.16c-.299 0-.56.059-.784.176a1.78 1.78 0 00-.576.432 2.1 2.1 0 00-.352.624 3.377 3.377 0 00-.176.72h3.6zm5.7-.768c0 .512.145.875.432 1.088.3.203.704.304 1.216.304.246 0 .486-.01.72-.032.246-.032.46-.07.64-.112v-3.84h1.936V20h-1.936v-2.992l-.752.128a6.147 6.147 0 01-2.208-.08 2.82 2.82 0 01-1.056-.48 2.276 2.276 0 01-.688-.912c-.16-.384-.24-.859-.24-1.424v-2.608h1.937v2.592zm10.67 4.416c.597 0 1.05-.032 1.36-.096V16.4a4.326 4.326 0 00-1.136-.144c-.214 0-.433.016-.657.048-.213.032-.41.09-.592.176-.17.085-.309.208-.416.368a.973.973 0 00-.16.576c0 .459.144.779.432.96.288.17.678.256 1.168.256zm-.16-7.216c.64 0 1.178.08 1.615.24.438.16.784.384 1.04.672.267.288.454.64.56 1.056.118.405.176.853.176 1.344v5.072c-.298.064-.752.139-1.36.224a12.9 12.9 0 01-2.032.144c-.501 0-.96-.048-1.376-.144a2.972 2.972 0 01-1.072-.464 2.29 2.29 0 01-.688-.832c-.16-.341-.24-.763-.24-1.264 0-.48.091-.885.272-1.216.192-.33.448-.597.768-.8.32-.213.688-.363 1.104-.448.427-.096.87-.144 1.328-.144.214 0 .438.016.672.048.235.021.486.064.752.128v-.32c0-.224-.026-.437-.08-.64a1.22 1.22 0 00-.288-.528 1.208 1.208 0 00-.528-.368c-.213-.085-.485-.128-.816-.128-.448 0-.858.032-1.232.096a5.417 5.417 0 00-.912.224l-.24-1.568c.246-.085.603-.17 1.072-.256.47-.085.971-.128 1.504-.128zm12.386 1.824h-2.704V20h-1.936v-6.752h-2.688v-1.616h7.328v1.616zm4.71 5.392c.598 0 1.05-.032 1.36-.096V16.4a4.325 4.325 0 00-1.136-.144 4.64 4.64 0 00-.656.048c-.213.032-.41.09-.592.176-.17.085-.31.208-.416.368a.973.973 0 00-.16.576c0 .459.144.779.432.96.288.17.678.256 1.168.256zm-.16-7.216c.64 0 1.179.08 1.616.24.438.16.784.384 1.04.672.267.288.454.64.56 1.056.118.405.176.853.176 1.344v5.072c-.298.064-.752.139-1.36.224a12.89 12.89 0 01-2.032.144c-.501 0-.96-.048-1.376-.144a2.973 2.973 0 01-1.072-.464 2.29 2.29 0 01-.688-.832c-.16-.341-.24-.763-.24-1.264 0-.48.09-.885.272-1.216.192-.33.448-.597.768-.8.32-.213.688-.363 1.104-.448.427-.096.87-.144 1.328-.144.214 0 .438.016.672.048.235.021.486.064.752.128v-.32c0-.224-.026-.437-.08-.64a1.218 1.218 0 00-.288-.528 1.208 1.208 0 00-.528-.368c-.213-.085-.485-.128-.816-.128-.448 0-.858.032-1.232.096a5.422 5.422 0 00-.912.224l-.24-1.568c.246-.085.603-.17 1.072-.256a8.41 8.41 0 011.504-.128zm12.387 1.824h-2.704V20H94.02v-6.752h-2.688v-1.616h7.328v1.616zm3.702 1.472c.16-.043.395-.08.704-.112.309-.032.619-.048.928-.048.48 0 .928.053 1.344.16.427.107.795.277 1.104.512.309.224.555.517.736.88.181.352.272.773.272 1.264 0 .501-.085.928-.256 1.28-.171.352-.416.64-.736.864-.32.224-.704.39-1.152.496a6.22 6.22 0 01-1.472.16c-.629 0-1.216-.032-1.76-.096a15.267 15.267 0 01-1.648-.288v-8.16h1.936v3.088zm1.424 3.936c.544 0 .965-.101 1.264-.304.309-.213.464-.55.464-1.008a1.04 1.04 0 00-.16-.592 1.063 1.063 0 00-.4-.384 1.55 1.55 0 00-.576-.224 3.757 3.757 0 00-.704-.064c-.224 0-.459.01-.704.032-.245.01-.448.037-.608.08v2.384c.139.021.341.043.608.064.277.01.549.016.816.016z"/></svg></svg>