<?xml version="1.0" encoding="utf-8"?><svg xmlns="http://www.w3.org/2000/svg" xmlns:xlink="http://www.w3.org/1999/xlink"><symbol fill="none" viewBox="0 0 22 22" id="download" xmlns="http://www.w3.org/2000/svg"><path d="M1 15.5v6h20.5v-6" stroke="currentColor" stroke-linejoin="round"/><path d="M11.353 0v17.5m0 0L17 12m-5.647 5.5L5.5 12" stroke="currentColor"/></symbol><symbol fill="none" viewBox="0 0 31 22" id="eye" xmlns="http://www.w3.org/2000/svg"><path fill-rule="evenodd" clip-rule="evenodd" d="M31 10.656S25.187 0 15.5 0C5.812 0 0 10.656 0 10.656s5.813 10.656 15.5 10.656c9.688 0 15.5-10.656 15.5-10.656zm-28.727 0a25.444 25.444 0 003.216 3.959c2.494 2.497 5.904 4.76 10.011 4.76 4.108 0 7.516-2.263 10.013-4.76a25.444 25.444 0 003.216-3.959 25.449 25.449 0 00-3.216-3.958C23.016 4.2 19.606 1.938 15.5 1.938c-4.107 0-7.516 2.263-10.013 4.76a25.447 25.447 0 00-3.216 3.958h.002z" fill="currentColor"/><path fill-rule="evenodd" clip-rule="evenodd" d="M15.5 6.884a3.928 3.928 0 100 7.857 3.928 3.928 0 000-7.857zM10 10.812a5.5 5.5 0 1111 0 5.5 5.5 0 01-11 0z" fill="currentColor"/></symbol><symbol fill="none" viewBox="0 0 24 24" id="map" xmlns="http://www.w3.org/2000/svg"><path clip-rule="evenodd" d="M5 7.444L9.333 6v11.556L5 19V7.444zm8.667 0L18 6v11.556L13.667 19V7.444zm0 0L9.333 6v11.556L13.667 19V7.444z" stroke="currentColor" stroke-linejoin="round"/></symbol><symbol fill="none" viewBox="0 0 24 24" id="phone" xmlns="http://www.w3.org/2000/svg"><path d="M12.74 18.404l2.566-2.565a1 1 0 011.279-.113l3.55 2.476a1 1 0 01.135 1.528l-.386.386c-.71.71-1.73 1.018-2.685.71-2.065-.665-5.822-2.208-8.937-5.323-3.115-3.115-4.659-6.872-5.323-8.937-.308-.956 0-1.975.71-2.685l.386-.387a1 1 0 011.527.135L8.04 7.18a1 1 0 01-.113 1.28L5.36 11.023" stroke="currentColor" stroke-linecap="round"/></symbol><symbol fill="none" viewBox="0 0 26 26" id="popup-close" xmlns="http://www.w3.org/2000/svg"><path d="M25.276 23.26L2.648.633l-1.94 1.94L23.337 25.2l1.94-1.94z" fill="#272526"/><path d="M23.338.632L.711 23.26l1.94 1.94L25.278 2.572l-1.94-1.94z" fill="#272526"/></symbol><symbol fill="none" viewBox="0 0 25 23" id="print" xmlns="http://www.w3.org/2000/svg"><path d="M4.12 22.5v-8.323h16.646V22.5H4.12zm.694-15.258V1h15.258v6.242H4.814zm3.815 10.056h7.629m-7.629 2.428h7.629" stroke="currentColor"/><path d="M4.121 19.379H1V7.242h22.887v12.137h-3.12" stroke="currentColor" stroke-linejoin="round"/><path fill="currentColor" d="M20.766 9.323h1.04v1.04h-1.04z"/></symbol><symbol fill="none" viewBox="0 0 15 24" id="rightBig" xmlns="http://www.w3.org/2000/svg"><path d="M13 2L3 12l10 10" stroke="currentColor" stroke-width="3" stroke-linecap="round"/></symbol><symbol fill="none" viewBox="0 0 24 24" id="time" xmlns="http://www.w3.org/2000/svg"><path d="M20.5 12a8.5 8.5 0 11-17 0 8.5 8.5 0 0117 0z" stroke="currentColor"/><path d="M12 6.273V12l3.273 3.273" stroke="currentColor" stroke-linecap="round"/></symbol></svg>