<svg width="31" height="22" viewBox="0 0 31 22" fill="none" xmlns="http://www.w3.org/2000/svg">
    <path fill-rule="evenodd" clip-rule="evenodd"
          d="M31 10.6562C31 10.6562 25.1875 0 15.5 0C5.8125 0 0 10.6562 0 10.6562C0 10.6562 5.8125 21.3125 15.5 21.3125C25.1875 21.3125 31 10.6562 31 10.6562ZM2.27269 10.6562C3.20951 12.0801 4.287 13.4062 5.48894 14.6146C7.9825 17.112 11.3925 19.375 15.5 19.375C19.6075 19.375 23.0156 17.112 25.513 14.6146C26.7149 13.4062 27.7924 12.0801 28.7292 10.6562C27.7924 9.23243 26.7149 7.90633 25.513 6.69794C23.0156 4.2005 19.6056 1.9375 15.5 1.9375C11.3925 1.9375 7.98444 4.2005 5.487 6.69794C4.28505 7.90633 3.20756 9.23243 2.27075 10.6562H2.27269Z"
          fill="currentColor"/>
    <path fill-rule="evenodd" clip-rule="evenodd"
          d="M15.5 6.88393C14.4581 6.88393 13.4588 7.29783 12.7221 8.03458C11.9853 8.77133 11.5714 9.77058 11.5714 10.8125C11.5714 11.8544 11.9853 12.8537 12.7221 13.5904C13.4588 14.3272 14.4581 14.7411 15.5 14.7411C16.5419 14.7411 17.5412 14.3272 18.2779 13.5904C19.0147 12.8537 19.4286 11.8544 19.4286 10.8125C19.4286 9.77058 19.0147 8.77133 18.2779 8.03458C17.5412 7.29783 16.5419 6.88393 15.5 6.88393ZM10 10.8125C10 9.35381 10.5795 7.95486 11.6109 6.92341C12.6424 5.89196 14.0413 5.3125 15.5 5.3125C16.9587 5.3125 18.3576 5.89196 19.3891 6.92341C20.4205 7.95486 21 9.35381 21 10.8125C21 12.2712 20.4205 13.6701 19.3891 14.7016C18.3576 15.733 16.9587 16.3125 15.5 16.3125C14.0413 16.3125 12.6424 15.733 11.6109 14.7016C10.5795 13.6701 10 12.2712 10 10.8125Z"
          fill="currentColor"/>
</svg>
