<svg width="94" height="24" viewBox="0 0 94 24" fill="none" xmlns="http://www.w3.org/2000/svg">
<path d="M38.144 18.24C37.3653 18.24 36.656 18.112 36.016 17.856C35.376 17.6 34.8267 17.2267 34.368 16.736C33.9093 16.2453 33.552 15.6427 33.296 14.928C33.0507 14.2027 32.928 13.376 32.928 12.448C32.928 11.52 33.0667 10.6987 33.344 9.984C33.632 9.25867 34.016 8.65067 34.496 8.16C34.976 7.66933 35.536 7.296 36.176 7.04C36.816 6.784 37.4987 6.656 38.224 6.656C38.6827 6.656 39.0933 6.688 39.456 6.752C39.8293 6.816 40.1493 6.89067 40.416 6.976C40.6933 7.06133 40.9173 7.14667 41.088 7.232C41.2587 7.31733 41.376 7.38133 41.44 7.424L40.992 8.704C40.896 8.64 40.7573 8.57067 40.576 8.496C40.3947 8.42133 40.1867 8.34667 39.952 8.272C39.728 8.19733 39.4773 8.13867 39.2 8.096C38.9333 8.04267 38.6613 8.016 38.384 8.016C37.7973 8.016 37.2693 8.11733 36.8 8.32C36.3307 8.52267 35.9307 8.816 35.6 9.2C35.2693 9.584 35.0133 10.0533 34.832 10.608C34.6613 11.152 34.576 11.7653 34.576 12.448C34.576 13.1093 34.6507 13.712 34.8 14.256C34.96 14.8 35.1947 15.2693 35.504 15.664C35.8133 16.048 36.1973 16.3467 36.656 16.56C37.1253 16.7733 37.6693 16.88 38.288 16.88C39.0027 16.88 39.5947 16.8053 40.064 16.656C40.5333 16.5067 40.8853 16.3733 41.12 16.256L41.52 17.536C41.4453 17.5893 41.312 17.6587 41.12 17.744C40.928 17.8187 40.688 17.8933 40.4 17.968C40.112 18.0427 39.776 18.1067 39.392 18.16C39.008 18.2133 38.592 18.24 38.144 18.24ZM46.5619 13.472C46.8925 13.7067 47.2499 14.0053 47.6339 14.368C48.0179 14.72 48.3912 15.104 48.7539 15.52C49.1272 15.936 49.4739 16.3627 49.7939 16.8C50.1139 17.2267 50.3859 17.6267 50.6099 18H48.8499C48.6152 17.6373 48.3379 17.2693 48.0179 16.896C47.7085 16.512 47.3832 16.144 47.0419 15.792C46.7005 15.44 46.3539 15.1147 46.0019 14.816C45.6499 14.5173 45.3192 14.2667 45.0099 14.064V18H43.5219V9.68H45.0099V13.248C45.2659 13.0027 45.5592 12.72 45.8899 12.4C46.2205 12.0693 46.5512 11.7387 46.8819 11.408C47.2232 11.0667 47.5379 10.7467 47.8259 10.448C48.1139 10.1387 48.3485 9.88267 48.5299 9.68H50.2579C50.0232 9.936 49.7459 10.2293 49.4259 10.56C49.1165 10.88 48.7912 11.2107 48.4499 11.552C48.1192 11.8933 47.7885 12.2347 47.4579 12.576C47.1272 12.9067 46.8285 13.2053 46.5619 13.472ZM55.2516 16.928C55.6036 16.928 55.913 16.9227 56.1796 16.912C56.457 16.8907 56.6863 16.8587 56.8676 16.816V14.336C56.761 14.2827 56.585 14.24 56.3396 14.208C56.105 14.1653 55.817 14.144 55.4756 14.144C55.2516 14.144 55.0116 14.16 54.7556 14.192C54.5103 14.224 54.281 14.2933 54.0676 14.4C53.865 14.496 53.6943 14.6347 53.5556 14.816C53.417 14.9867 53.3476 15.216 53.3476 15.504C53.3476 16.0373 53.5183 16.4107 53.8596 16.624C54.201 16.8267 54.665 16.928 55.2516 16.928ZM55.1236 9.472C55.721 9.472 56.2223 9.552 56.6276 9.712C57.0436 9.86133 57.3743 10.08 57.6196 10.368C57.8756 10.6453 58.057 10.9813 58.1636 11.376C58.2703 11.76 58.3236 12.1867 58.3236 12.656V17.856C58.1956 17.8773 58.0143 17.9093 57.7796 17.952C57.5556 17.984 57.2996 18.016 57.0116 18.048C56.7236 18.08 56.409 18.1067 56.0676 18.128C55.737 18.16 55.4063 18.176 55.0756 18.176C54.6063 18.176 54.1743 18.128 53.7796 18.032C53.385 17.936 53.0436 17.7867 52.7556 17.584C52.4676 17.3707 52.2436 17.0933 52.0836 16.752C51.9236 16.4107 51.8436 16 51.8436 15.52C51.8436 15.0613 51.9343 14.6667 52.1156 14.336C52.3076 14.0053 52.5636 13.7387 52.8836 13.536C53.2036 13.3333 53.577 13.184 54.0036 13.088C54.4303 12.992 54.8783 12.944 55.3476 12.944C55.497 12.944 55.6516 12.9547 55.8116 12.976C55.9716 12.9867 56.121 13.008 56.2596 13.04C56.409 13.0613 56.537 13.0827 56.6436 13.104C56.7503 13.1253 56.825 13.1413 56.8676 13.152V12.736C56.8676 12.4907 56.841 12.2507 56.7876 12.016C56.7343 11.7707 56.6383 11.5573 56.4996 11.376C56.361 11.184 56.169 11.0347 55.9236 10.928C55.689 10.8107 55.3796 10.752 54.9956 10.752C54.505 10.752 54.073 10.7893 53.6996 10.864C53.337 10.928 53.065 10.9973 52.8836 11.072L52.7076 9.84C52.8996 9.75467 53.2196 9.67467 53.6676 9.6C54.1156 9.51467 54.601 9.472 55.1236 9.472ZM62.059 9.68V12.128C62.059 12.7573 62.219 13.2 62.539 13.456C62.859 13.7013 63.2963 13.824 63.851 13.824C64.2563 13.824 64.5923 13.8027 64.859 13.76C65.1363 13.7173 65.3817 13.6693 65.595 13.616V9.68H67.083V18H65.595V14.768C65.5097 14.7893 65.3977 14.816 65.259 14.848C65.1203 14.88 64.9603 14.912 64.779 14.944C64.6083 14.9653 64.427 14.9867 64.235 15.008C64.043 15.0293 63.8563 15.04 63.675 15.04C63.2163 15.04 62.795 14.992 62.411 14.896C62.0377 14.8 61.7123 14.64 61.435 14.416C61.1683 14.192 60.955 13.8987 60.795 13.536C60.6457 13.1627 60.571 12.6987 60.571 12.144V9.68H62.059ZM72.7822 16.928C73.1342 16.928 73.4436 16.9227 73.7102 16.912C73.9876 16.8907 74.2169 16.8587 74.3982 16.816V14.336C74.2916 14.2827 74.1156 14.24 73.8702 14.208C73.6356 14.1653 73.3476 14.144 73.0062 14.144C72.7822 14.144 72.5422 14.16 72.2862 14.192C72.0409 14.224 71.8116 14.2933 71.5982 14.4C71.3956 14.496 71.2249 14.6347 71.0862 14.816C70.9476 14.9867 70.8782 15.216 70.8782 15.504C70.8782 16.0373 71.0489 16.4107 71.3902 16.624C71.7316 16.8267 72.1956 16.928 72.7822 16.928ZM72.6542 9.472C73.2516 9.472 73.7529 9.552 74.1582 9.712C74.5742 9.86133 74.9049 10.08 75.1502 10.368C75.4062 10.6453 75.5876 10.9813 75.6942 11.376C75.8009 11.76 75.8542 12.1867 75.8542 12.656V17.856C75.7262 17.8773 75.5449 17.9093 75.3102 17.952C75.0862 17.984 74.8302 18.016 74.5422 18.048C74.2542 18.08 73.9396 18.1067 73.5982 18.128C73.2676 18.16 72.9369 18.176 72.6062 18.176C72.1369 18.176 71.7049 18.128 71.3102 18.032C70.9156 17.936 70.5742 17.7867 70.2862 17.584C69.9982 17.3707 69.7742 17.0933 69.6142 16.752C69.4542 16.4107 69.3742 16 69.3742 15.52C69.3742 15.0613 69.4649 14.6667 69.6462 14.336C69.8382 14.0053 70.0942 13.7387 70.4142 13.536C70.7342 13.3333 71.1076 13.184 71.5342 13.088C71.9609 12.992 72.4089 12.944 72.8782 12.944C73.0276 12.944 73.1822 12.9547 73.3422 12.976C73.5022 12.9867 73.6516 13.008 73.7902 13.04C73.9396 13.0613 74.0676 13.0827 74.1742 13.104C74.2809 13.1253 74.3556 13.1413 74.3982 13.152V12.736C74.3982 12.4907 74.3716 12.2507 74.3182 12.016C74.2649 11.7707 74.1689 11.5573 74.0302 11.376C73.8916 11.184 73.6996 11.0347 73.4542 10.928C73.2196 10.8107 72.9102 10.752 72.5262 10.752C72.0356 10.752 71.6036 10.7893 71.2302 10.864C70.8676 10.928 70.5956 10.9973 70.4142 11.072L70.2382 9.84C70.4302 9.75467 70.7502 9.67467 71.1982 9.6C71.6462 9.51467 72.1316 9.472 72.6542 9.472ZM84.5176 9.68V10.928H81.8136V18H80.3256V10.928H77.6216V9.68H84.5176ZM89.5239 16.96C90.1532 16.96 90.6492 16.8373 91.0119 16.592C91.3745 16.3467 91.5559 15.952 91.5559 15.408C91.5559 15.1413 91.5025 14.912 91.3959 14.72C91.2892 14.528 91.1399 14.3733 90.9479 14.256C90.7665 14.128 90.5532 14.0373 90.3079 13.984C90.0625 13.92 89.8012 13.888 89.5239 13.888C89.2359 13.888 88.9372 13.8987 88.6279 13.92C88.3292 13.9307 88.0732 13.9627 87.8599 14.016V16.88C87.9239 16.8907 88.0199 16.9013 88.1479 16.912C88.2759 16.9227 88.4145 16.9333 88.5639 16.944C88.7239 16.944 88.8839 16.9493 89.0439 16.96C89.2145 16.96 89.3745 16.96 89.5239 16.96ZM86.3719 17.824V9.68H87.8599V12.864C87.9452 12.8427 88.0572 12.8213 88.1959 12.8C88.3452 12.7787 88.4999 12.7573 88.6599 12.736C88.8305 12.7147 89.0065 12.6987 89.1879 12.688C89.3692 12.6773 89.5399 12.672 89.6999 12.672C90.1585 12.672 90.5905 12.7253 90.9959 12.832C91.4012 12.928 91.7532 13.088 92.0519 13.312C92.3612 13.5253 92.6065 13.808 92.7879 14.16C92.9692 14.5013 93.0599 14.912 93.0599 15.392C93.0599 15.8933 92.9745 16.32 92.8039 16.672C92.6332 17.024 92.3879 17.312 92.0679 17.536C91.7479 17.76 91.3639 17.92 90.9159 18.016C90.4785 18.1227 89.9879 18.176 89.4439 18.176C88.9105 18.176 88.3879 18.144 87.8759 18.08C87.3639 18.0267 86.8625 17.9413 86.3719 17.824Z" fill="#2B2B3E"/>
<path d="M1 15.5V21.5H21.5V15.5" stroke="#2B2B3E" stroke-linejoin="round"/>
<path d="M11.3531 0L11.3531 17.5M11.3531 17.5L17 12M11.3531 17.5L5.5 12" stroke="#2B2B3E"/>
</svg>
