<svg width="96" height="24" viewBox="0 0 96 24" fill="none" xmlns="http://www.w3.org/2000/svg">
<path d="M38.256 18.24C37.424 18.24 36.6773 18.112 36.016 17.856C35.3547 17.6 34.7947 17.2267 34.336 16.736C33.8773 16.2347 33.5253 15.6267 33.28 14.912C33.0347 14.1973 32.912 13.376 32.912 12.448C32.912 11.52 33.0507 10.6987 33.328 9.984C33.616 9.26933 34.0053 8.66667 34.496 8.176C34.9867 7.67467 35.5627 7.296 36.224 7.04C36.8853 6.784 37.5947 6.656 38.352 6.656C38.8107 6.656 39.2267 6.69333 39.6 6.768C39.9733 6.832 40.2987 6.90667 40.576 6.992C40.8533 7.07733 41.0827 7.168 41.264 7.264C41.4453 7.36 41.5733 7.42933 41.648 7.472L41.056 9.12C40.8 8.96 40.432 8.81067 39.952 8.672C39.4827 8.52267 38.9707 8.448 38.416 8.448C37.936 8.448 37.488 8.53333 37.072 8.704C36.656 8.864 36.2933 9.10933 35.984 9.44C35.6853 9.77067 35.4507 10.1867 35.28 10.688C35.1093 11.1893 35.024 11.7707 35.024 12.432C35.024 13.0187 35.088 13.5573 35.216 14.048C35.3547 14.5387 35.5627 14.9653 35.84 15.328C36.1173 15.68 36.4693 15.9573 36.896 16.16C37.3227 16.352 37.8347 16.448 38.432 16.448C39.1467 16.448 39.728 16.3787 40.176 16.24C40.624 16.0907 40.9707 15.952 41.216 15.824L41.76 17.472C41.632 17.5573 41.456 17.6427 41.232 17.728C41.0187 17.8133 40.7627 17.8987 40.464 17.984C40.1653 18.0587 39.8293 18.1173 39.456 18.16C39.0827 18.2133 38.6827 18.24 38.256 18.24ZM45.6911 12.992C45.9365 12.7467 46.2031 12.4747 46.4911 12.176C46.7791 11.8667 47.0618 11.5573 47.3391 11.248C47.6271 10.9387 47.8991 10.6453 48.1551 10.368C48.4111 10.08 48.6245 9.83467 48.7951 9.632H51.0671C50.8325 9.90933 50.5605 10.2133 50.2511 10.544C49.9525 10.8747 49.6378 11.216 49.3071 11.568C48.9871 11.9093 48.6671 12.2453 48.3471 12.576C48.0378 12.896 47.7551 13.184 47.4991 13.44C47.8298 13.7173 48.1711 14.0427 48.5231 14.416C48.8858 14.7787 49.2378 15.168 49.5791 15.584C49.9311 15.9893 50.2565 16.4053 50.5551 16.832C50.8538 17.248 51.1045 17.6373 51.3071 18H49.0671C48.8645 17.68 48.6245 17.344 48.3471 16.992C48.0805 16.64 47.7978 16.2987 47.4991 15.968C47.2005 15.6267 46.8965 15.3067 46.5871 15.008C46.2778 14.7093 45.9791 14.4533 45.6911 14.24V18H43.7551V9.632H45.6911V12.992ZM55.9722 16.64C56.5696 16.64 57.0229 16.608 57.3322 16.544V14.4C57.2256 14.368 57.0709 14.336 56.8682 14.304C56.6656 14.272 56.4416 14.256 56.1962 14.256C55.9829 14.256 55.7642 14.272 55.5402 14.304C55.3269 14.336 55.1296 14.3947 54.9482 14.48C54.7776 14.5653 54.6389 14.688 54.5322 14.848C54.4256 14.9973 54.3722 15.1893 54.3722 15.424C54.3722 15.8827 54.5162 16.2027 54.8042 16.384C55.0922 16.5547 55.4816 16.64 55.9722 16.64ZM55.8122 9.424C56.4522 9.424 56.9909 9.504 57.4282 9.664C57.8656 9.824 58.2122 10.048 58.4682 10.336C58.7349 10.624 58.9216 10.976 59.0282 11.392C59.1456 11.7973 59.2042 12.2453 59.2042 12.736V17.808C58.9056 17.872 58.4522 17.9467 57.8442 18.032C57.2469 18.128 56.5696 18.176 55.8122 18.176C55.3109 18.176 54.8522 18.128 54.4362 18.032C54.0202 17.936 53.6629 17.7813 53.3642 17.568C53.0762 17.3547 52.8469 17.0773 52.6762 16.736C52.5162 16.3947 52.4362 15.9733 52.4362 15.472C52.4362 14.992 52.5269 14.5867 52.7082 14.256C52.9002 13.9253 53.1562 13.6587 53.4762 13.456C53.7962 13.2427 54.1642 13.0933 54.5802 13.008C55.0069 12.912 55.4496 12.864 55.9082 12.864C56.1216 12.864 56.3456 12.88 56.5802 12.912C56.8149 12.9333 57.0656 12.976 57.3322 13.04V12.72C57.3322 12.496 57.3056 12.2827 57.2522 12.08C57.1989 11.8773 57.1029 11.7013 56.9642 11.552C56.8362 11.392 56.6602 11.2693 56.4362 11.184C56.2229 11.0987 55.9509 11.056 55.6202 11.056C55.1722 11.056 54.7616 11.088 54.3882 11.152C54.0149 11.216 53.7109 11.2907 53.4762 11.376L53.2362 9.808C53.4816 9.72267 53.8389 9.63733 54.3082 9.552C54.7776 9.46667 55.2789 9.424 55.8122 9.424ZM63.2871 12.224C63.2871 12.736 63.4311 13.0987 63.7191 13.312C64.0178 13.5147 64.4231 13.616 64.9351 13.616C65.1805 13.616 65.4205 13.6053 65.6551 13.584C65.9005 13.552 66.1138 13.5147 66.2951 13.472V9.632H68.2311V18H66.2951V15.008C66.1031 15.04 65.8525 15.0827 65.5431 15.136C65.2338 15.1787 64.9565 15.2 64.7111 15.2C64.2098 15.2 63.7511 15.152 63.3351 15.056C62.9298 14.96 62.5778 14.8 62.2791 14.576C61.9805 14.3413 61.7511 14.0373 61.5911 13.664C61.4311 13.28 61.3511 12.8053 61.3511 12.24V9.632H63.2871V12.224ZM73.956 16.64C74.5533 16.64 75.0067 16.608 75.316 16.544V14.4C75.2093 14.368 75.0547 14.336 74.852 14.304C74.6493 14.272 74.4253 14.256 74.18 14.256C73.9667 14.256 73.748 14.272 73.524 14.304C73.3107 14.336 73.1133 14.3947 72.932 14.48C72.7613 14.5653 72.6227 14.688 72.516 14.848C72.4093 14.9973 72.356 15.1893 72.356 15.424C72.356 15.8827 72.5 16.2027 72.788 16.384C73.076 16.5547 73.4653 16.64 73.956 16.64ZM73.796 9.424C74.436 9.424 74.9747 9.504 75.412 9.664C75.8493 9.824 76.196 10.048 76.452 10.336C76.7187 10.624 76.9053 10.976 77.012 11.392C77.1293 11.7973 77.188 12.2453 77.188 12.736V17.808C76.8893 17.872 76.436 17.9467 75.828 18.032C75.2307 18.128 74.5533 18.176 73.796 18.176C73.2947 18.176 72.836 18.128 72.42 18.032C72.004 17.936 71.6467 17.7813 71.348 17.568C71.06 17.3547 70.8307 17.0773 70.66 16.736C70.5 16.3947 70.42 15.9733 70.42 15.472C70.42 14.992 70.5107 14.5867 70.692 14.256C70.884 13.9253 71.14 13.6587 71.46 13.456C71.78 13.2427 72.148 13.0933 72.564 13.008C72.9907 12.912 73.4333 12.864 73.892 12.864C74.1053 12.864 74.3293 12.88 74.564 12.912C74.7987 12.9333 75.0493 12.976 75.316 13.04V12.72C75.316 12.496 75.2893 12.2827 75.236 12.08C75.1827 11.8773 75.0867 11.7013 74.948 11.552C74.82 11.392 74.644 11.2693 74.42 11.184C74.2067 11.0987 73.9347 11.056 73.604 11.056C73.156 11.056 72.7453 11.088 72.372 11.152C71.9987 11.216 71.6947 11.2907 71.46 11.376L71.22 9.808C71.4653 9.72267 71.8227 9.63733 72.292 9.552C72.7613 9.46667 73.2627 9.424 73.796 9.424ZM86.1829 11.248H83.4789V18H81.5429V11.248H78.8549V9.632H86.1829V11.248ZM89.8849 12.72C90.0449 12.6773 90.2795 12.64 90.5889 12.608C90.8982 12.576 91.2075 12.56 91.5169 12.56C91.9969 12.56 92.4449 12.6133 92.8609 12.72C93.2875 12.8267 93.6555 12.9973 93.9649 13.232C94.2742 13.456 94.5195 13.7493 94.7009 14.112C94.8822 14.464 94.9729 14.8853 94.9729 15.376C94.9729 15.8773 94.8875 16.304 94.7169 16.656C94.5462 17.008 94.3009 17.296 93.9809 17.52C93.6609 17.744 93.2769 17.9093 92.8289 18.016C92.3915 18.1227 91.9009 18.176 91.3569 18.176C90.7275 18.176 90.1409 18.144 89.5969 18.08C89.0529 18.016 88.5035 17.92 87.9489 17.792V9.632H89.8849V12.72ZM91.3089 16.656C91.8529 16.656 92.2742 16.5547 92.5729 16.352C92.8822 16.1387 93.0369 15.8027 93.0369 15.344C93.0369 15.1093 92.9835 14.912 92.8769 14.752C92.7809 14.592 92.6475 14.464 92.4769 14.368C92.3169 14.2613 92.1249 14.1867 91.9009 14.144C91.6769 14.1013 91.4422 14.08 91.1969 14.08C90.9729 14.08 90.7382 14.0907 90.4929 14.112C90.2475 14.1227 90.0449 14.1493 89.8849 14.192V16.576C90.0235 16.5973 90.2262 16.6187 90.4929 16.64C90.7702 16.6507 91.0422 16.656 91.3089 16.656Z" fill="#2B2B3E"/>
<path d="M1 15.5V21.5H21.5V15.5" stroke="#2B2B3E" stroke-width="2" stroke-linejoin="round"/>
<path d="M11.3531 0L11.3531 17.5M11.3531 17.5L17 12M11.3531 17.5L5.5 12" stroke="#2B2B3E" stroke-width="2"/>
</svg>
