<svg width="108" height="26" viewBox="0 0 108 26" fill="none" xmlns="http://www.w3.org/2000/svg">
<path d="M4.12061 22.4999V14.1774H20.7658V22.4999H4.12061Z" stroke="#2B2B3E" stroke-width="2"/>
<path d="M4.81396 7.24194V1H20.072V7.24194H4.81396Z" stroke="#2B2B3E" stroke-width="2"/>
<path d="M8.62891 17.2983H16.2579" stroke="#2B2B3E"/>
<path d="M8.62891 19.7258H16.2579" stroke="#2B2B3E"/>
<path d="M4.12097 19.379H1V7.24194H23.8871V19.379H20.7661" stroke="#2B2B3E" stroke-width="2" stroke-linejoin="round"/>
<rect x="20.7661" y="9.32263" width="1.04032" height="1.04032" fill="#2B2B3E"/>
<path d="M45.096 8.912V20H43.08V10.64H38.344V20H36.328V8.912H45.096ZM47.5099 15.856C47.5099 15.12 47.6165 14.4747 47.8299 13.92C48.0539 13.3653 48.3472 12.9067 48.7099 12.544C49.0725 12.1707 49.4885 11.8933 49.9579 11.712C50.4272 11.52 50.9072 11.424 51.3979 11.424C52.5499 11.424 53.4459 11.7813 54.0859 12.496C54.7365 13.2107 55.0619 14.2773 55.0619 15.696C55.0619 15.8027 55.0565 15.9253 55.0459 16.064C55.0459 16.192 55.0405 16.3093 55.0299 16.416H49.5099C49.5632 17.088 49.7979 17.6107 50.2139 17.984C50.6405 18.3467 51.2539 18.528 52.0539 18.528C52.5232 18.528 52.9499 18.4853 53.3339 18.4C53.7285 18.3147 54.0379 18.224 54.2619 18.128L54.5179 19.712C54.4112 19.7653 54.2619 19.824 54.0699 19.888C53.8885 19.9413 53.6752 19.9893 53.4299 20.032C53.1952 20.0853 52.9392 20.128 52.6619 20.16C52.3845 20.192 52.1019 20.208 51.8139 20.208C51.0779 20.208 50.4379 20.1013 49.8939 19.888C49.3499 19.664 48.9019 19.36 48.5499 18.976C48.1979 18.5813 47.9365 18.1227 47.7659 17.6C47.5952 17.0667 47.5099 16.4853 47.5099 15.856ZM53.1259 14.992C53.1259 14.7253 53.0885 14.4747 53.0139 14.24C52.9392 13.9947 52.8272 13.7867 52.6779 13.616C52.5392 13.4347 52.3632 13.296 52.1499 13.2C51.9472 13.0933 51.7019 13.04 51.4139 13.04C51.1152 13.04 50.8539 13.0987 50.6299 13.216C50.4059 13.3227 50.2139 13.4667 50.0539 13.648C49.9045 13.8293 49.7872 14.0373 49.7019 14.272C49.6165 14.5067 49.5579 14.7467 49.5259 14.992H53.1259ZM58.8265 14.224C58.8265 14.736 58.9705 15.0987 59.2585 15.312C59.5572 15.5147 59.9625 15.616 60.4745 15.616C60.7198 15.616 60.9598 15.6053 61.1945 15.584C61.4398 15.552 61.6532 15.5147 61.8345 15.472V11.632H63.7705V20H61.8345V17.008C61.6425 17.04 61.3918 17.0827 61.0825 17.136C60.7732 17.1787 60.4958 17.2 60.2505 17.2C59.7492 17.2 59.2905 17.152 58.8745 17.056C58.4692 16.96 58.1172 16.8 57.8185 16.576C57.5198 16.3413 57.2905 16.0373 57.1305 15.664C56.9705 15.28 56.8905 14.8053 56.8905 14.24V11.632H58.8265V14.224ZM69.4954 18.64C70.0927 18.64 70.546 18.608 70.8554 18.544V16.4C70.7487 16.368 70.594 16.336 70.3914 16.304C70.1887 16.272 69.9647 16.256 69.7194 16.256C69.506 16.256 69.2874 16.272 69.0634 16.304C68.85 16.336 68.6527 16.3947 68.4714 16.48C68.3007 16.5653 68.162 16.688 68.0554 16.848C67.9487 16.9973 67.8954 17.1893 67.8954 17.424C67.8954 17.8827 68.0394 18.2027 68.3274 18.384C68.6154 18.5547 69.0047 18.64 69.4954 18.64ZM69.3354 11.424C69.9754 11.424 70.514 11.504 70.9514 11.664C71.3887 11.824 71.7354 12.048 71.9914 12.336C72.258 12.624 72.4447 12.976 72.5514 13.392C72.6687 13.7973 72.7274 14.2453 72.7274 14.736V19.808C72.4287 19.872 71.9754 19.9467 71.3674 20.032C70.77 20.128 70.0927 20.176 69.3354 20.176C68.834 20.176 68.3754 20.128 67.9594 20.032C67.5434 19.936 67.186 19.7813 66.8874 19.568C66.5994 19.3547 66.37 19.0773 66.1994 18.736C66.0394 18.3947 65.9594 17.9733 65.9594 17.472C65.9594 16.992 66.05 16.5867 66.2314 16.256C66.4234 15.9253 66.6794 15.6587 66.9994 15.456C67.3194 15.2427 67.6874 15.0933 68.1034 15.008C68.53 14.912 68.9727 14.864 69.4314 14.864C69.6447 14.864 69.8687 14.88 70.1034 14.912C70.338 14.9333 70.5887 14.976 70.8554 15.04V14.72C70.8554 14.496 70.8287 14.2827 70.7754 14.08C70.722 13.8773 70.626 13.7013 70.4874 13.552C70.3594 13.392 70.1834 13.2693 69.9594 13.184C69.746 13.0987 69.474 13.056 69.1434 13.056C68.6954 13.056 68.2847 13.088 67.9114 13.152C67.538 13.216 67.234 13.2907 66.9994 13.376L66.7594 11.808C67.0047 11.7227 67.362 11.6373 67.8314 11.552C68.3007 11.4667 68.802 11.424 69.3354 11.424ZM81.7222 13.248H79.0182V20H77.0822V13.248H74.3942V11.632H81.7222V13.248ZM86.4322 18.64C87.0296 18.64 87.4829 18.608 87.7922 18.544V16.4C87.6856 16.368 87.5309 16.336 87.3282 16.304C87.1256 16.272 86.9016 16.256 86.6562 16.256C86.4429 16.256 86.2242 16.272 86.0002 16.304C85.7869 16.336 85.5896 16.3947 85.4082 16.48C85.2376 16.5653 85.0989 16.688 84.9922 16.848C84.8856 16.9973 84.8322 17.1893 84.8322 17.424C84.8322 17.8827 84.9762 18.2027 85.2642 18.384C85.5522 18.5547 85.9416 18.64 86.4322 18.64ZM86.2722 11.424C86.9122 11.424 87.4509 11.504 87.8882 11.664C88.3256 11.824 88.6722 12.048 88.9282 12.336C89.1949 12.624 89.3816 12.976 89.4882 13.392C89.6056 13.7973 89.6642 14.2453 89.6642 14.736V19.808C89.3656 19.872 88.9122 19.9467 88.3042 20.032C87.7069 20.128 87.0296 20.176 86.2722 20.176C85.7709 20.176 85.3122 20.128 84.8962 20.032C84.4802 19.936 84.1229 19.7813 83.8242 19.568C83.5362 19.3547 83.3069 19.0773 83.1362 18.736C82.9762 18.3947 82.8962 17.9733 82.8962 17.472C82.8962 16.992 82.9869 16.5867 83.1682 16.256C83.3602 15.9253 83.6162 15.6587 83.9362 15.456C84.2562 15.2427 84.6242 15.0933 85.0402 15.008C85.4669 14.912 85.9096 14.864 86.3682 14.864C86.5816 14.864 86.8056 14.88 87.0402 14.912C87.2749 14.9333 87.5256 14.976 87.7922 15.04V14.72C87.7922 14.496 87.7656 14.2827 87.7122 14.08C87.6589 13.8773 87.5629 13.7013 87.4242 13.552C87.2962 13.392 87.1202 13.2693 86.8962 13.184C86.6829 13.0987 86.4109 13.056 86.0802 13.056C85.6322 13.056 85.2216 13.088 84.8482 13.152C84.4749 13.216 84.1709 13.2907 83.9362 13.376L83.6962 11.808C83.9416 11.7227 84.2989 11.6373 84.7682 11.552C85.2376 11.4667 85.7389 11.424 86.2722 11.424ZM98.6591 13.248H95.9551V20H94.0191V13.248H91.3311V11.632H98.6591V13.248ZM102.361 14.72C102.521 14.6773 102.756 14.64 103.065 14.608C103.374 14.576 103.684 14.56 103.993 14.56C104.473 14.56 104.921 14.6133 105.337 14.72C105.764 14.8267 106.132 14.9973 106.441 15.232C106.75 15.456 106.996 15.7493 107.177 16.112C107.358 16.464 107.449 16.8853 107.449 17.376C107.449 17.8773 107.364 18.304 107.193 18.656C107.022 19.008 106.777 19.296 106.457 19.52C106.137 19.744 105.753 19.9093 105.305 20.016C104.868 20.1227 104.377 20.176 103.833 20.176C103.204 20.176 102.617 20.144 102.073 20.08C101.529 20.016 100.98 19.92 100.425 19.792V11.632H102.361V14.72ZM103.785 18.656C104.329 18.656 104.75 18.5547 105.049 18.352C105.358 18.1387 105.513 17.8027 105.513 17.344C105.513 17.1093 105.46 16.912 105.353 16.752C105.257 16.592 105.124 16.464 104.953 16.368C104.793 16.2613 104.601 16.1867 104.377 16.144C104.153 16.1013 103.918 16.08 103.673 16.08C103.449 16.08 103.214 16.0907 102.969 16.112C102.724 16.1227 102.521 16.1493 102.361 16.192V18.576C102.5 18.5973 102.702 18.6187 102.969 18.64C103.246 18.6507 103.518 18.656 103.785 18.656Z" fill="#2B2B3E"/>
</svg>
