<svg width="106" height="26" viewBox="0 0 106 26" fill="none" xmlns="http://www.w3.org/2000/svg">
<path d="M4.12061 22.4999V14.1774H20.7658V22.4999H4.12061Z" stroke="#2B2B3E"/>
<path d="M4.81396 7.24194V1H20.072V7.24194H4.81396Z" stroke="#2B2B3E"/>
<path d="M8.62891 17.2983H16.2579" stroke="#2B2B3E"/>
<path d="M8.62891 19.7258H16.2579" stroke="#2B2B3E"/>
<path d="M4.12097 19.379H1V7.24194H23.8871V19.379H20.7661" stroke="#2B2B3E" stroke-linejoin="round"/>
<rect x="20.7661" y="9.32263" width="1.04032" height="1.04032" fill="#2B2B3E"/>
<path d="M44.808 8.912V20H43.256V10.24H37.928V20H36.376V8.912H44.808ZM47.3235 15.856C47.3235 15.12 47.4302 14.48 47.6435 13.936C47.8568 13.3813 48.1395 12.9227 48.4915 12.56C48.8435 12.1973 49.2488 11.9253 49.7075 11.744C50.1662 11.5627 50.6355 11.472 51.1155 11.472C52.2355 11.472 53.0942 11.824 53.6915 12.528C54.2888 13.2213 54.5875 14.2827 54.5875 15.712C54.5875 15.776 54.5875 15.8613 54.5875 15.968C54.5875 16.064 54.5822 16.1547 54.5715 16.24H48.8755C48.9395 17.104 49.1902 17.76 49.6275 18.208C50.0648 18.656 50.7475 18.88 51.6755 18.88C52.1982 18.88 52.6355 18.8373 52.9875 18.752C53.3502 18.656 53.6222 18.5653 53.8035 18.48L54.0115 19.728C53.8302 19.824 53.5102 19.9253 53.0515 20.032C52.6035 20.1387 52.0915 20.192 51.5155 20.192C50.7902 20.192 50.1608 20.0853 49.6275 19.872C49.1048 19.648 48.6728 19.344 48.3315 18.96C47.9902 18.576 47.7342 18.1227 47.5635 17.6C47.4035 17.0667 47.3235 16.4853 47.3235 15.856ZM53.0355 15.04C53.0462 14.368 52.8755 13.8187 52.5235 13.392C52.1822 12.9547 51.7075 12.736 51.0995 12.736C50.7582 12.736 50.4542 12.8053 50.1875 12.944C49.9315 13.072 49.7128 13.2427 49.5315 13.456C49.3502 13.6693 49.2062 13.9147 49.0995 14.192C49.0035 14.4693 48.9395 14.752 48.9075 15.04H53.0355ZM57.989 11.68V14.128C57.989 14.7573 58.149 15.2 58.469 15.456C58.789 15.7013 59.2263 15.824 59.781 15.824C60.1863 15.824 60.5223 15.8027 60.789 15.76C61.0663 15.7173 61.3117 15.6693 61.525 15.616V11.68H63.013V20H61.525V16.768C61.4397 16.7893 61.3277 16.816 61.189 16.848C61.0503 16.88 60.8903 16.912 60.709 16.944C60.5383 16.9653 60.357 16.9867 60.165 17.008C59.973 17.0293 59.7863 17.04 59.605 17.04C59.1463 17.04 58.725 16.992 58.341 16.896C57.9677 16.8 57.6423 16.64 57.365 16.416C57.0983 16.192 56.885 15.8987 56.725 15.536C56.5757 15.1627 56.501 14.6987 56.501 14.144V11.68H57.989ZM68.7122 18.928C69.0642 18.928 69.3736 18.9227 69.6402 18.912C69.9176 18.8907 70.1469 18.8587 70.3282 18.816V16.336C70.2216 16.2827 70.0456 16.24 69.8002 16.208C69.5656 16.1653 69.2776 16.144 68.9362 16.144C68.7122 16.144 68.4722 16.16 68.2162 16.192C67.9709 16.224 67.7416 16.2933 67.5282 16.4C67.3256 16.496 67.1549 16.6347 67.0162 16.816C66.8776 16.9867 66.8082 17.216 66.8082 17.504C66.8082 18.0373 66.9789 18.4107 67.3202 18.624C67.6616 18.8267 68.1256 18.928 68.7122 18.928ZM68.5842 11.472C69.1816 11.472 69.6829 11.552 70.0882 11.712C70.5042 11.8613 70.8349 12.08 71.0802 12.368C71.3362 12.6453 71.5176 12.9813 71.6242 13.376C71.7309 13.76 71.7842 14.1867 71.7842 14.656V19.856C71.6562 19.8773 71.4749 19.9093 71.2402 19.952C71.0162 19.984 70.7602 20.016 70.4722 20.048C70.1842 20.08 69.8696 20.1067 69.5282 20.128C69.1976 20.16 68.8669 20.176 68.5362 20.176C68.0669 20.176 67.6349 20.128 67.2402 20.032C66.8456 19.936 66.5042 19.7867 66.2162 19.584C65.9282 19.3707 65.7042 19.0933 65.5442 18.752C65.3842 18.4107 65.3042 18 65.3042 17.52C65.3042 17.0613 65.3949 16.6667 65.5762 16.336C65.7682 16.0053 66.0242 15.7387 66.3442 15.536C66.6642 15.3333 67.0376 15.184 67.4642 15.088C67.8909 14.992 68.3389 14.944 68.8082 14.944C68.9576 14.944 69.1122 14.9547 69.2722 14.976C69.4322 14.9867 69.5816 15.008 69.7202 15.04C69.8696 15.0613 69.9976 15.0827 70.1042 15.104C70.2109 15.1253 70.2856 15.1413 70.3282 15.152V14.736C70.3282 14.4907 70.3016 14.2507 70.2482 14.016C70.1949 13.7707 70.0989 13.5573 69.9602 13.376C69.8216 13.184 69.6296 13.0347 69.3842 12.928C69.1496 12.8107 68.8402 12.752 68.4562 12.752C67.9656 12.752 67.5336 12.7893 67.1602 12.864C66.7976 12.928 66.5256 12.9973 66.3442 13.072L66.1682 11.84C66.3602 11.7547 66.6802 11.6747 67.1282 11.6C67.5762 11.5147 68.0616 11.472 68.5842 11.472ZM80.4476 11.68V12.928H77.7436V20H76.2556V12.928H73.5516V11.68H80.4476ZM85.1179 18.928C85.4699 18.928 85.7792 18.9227 86.0459 18.912C86.3232 18.8907 86.5525 18.8587 86.7339 18.816V16.336C86.6272 16.2827 86.4512 16.24 86.2059 16.208C85.9712 16.1653 85.6832 16.144 85.3419 16.144C85.1179 16.144 84.8779 16.16 84.6219 16.192C84.3765 16.224 84.1472 16.2933 83.9339 16.4C83.7312 16.496 83.5605 16.6347 83.4219 16.816C83.2832 16.9867 83.2139 17.216 83.2139 17.504C83.2139 18.0373 83.3845 18.4107 83.7259 18.624C84.0672 18.8267 84.5312 18.928 85.1179 18.928ZM84.9899 11.472C85.5872 11.472 86.0885 11.552 86.4939 11.712C86.9099 11.8613 87.2405 12.08 87.4859 12.368C87.7419 12.6453 87.9232 12.9813 88.0299 13.376C88.1365 13.76 88.1899 14.1867 88.1899 14.656V19.856C88.0619 19.8773 87.8805 19.9093 87.6459 19.952C87.4219 19.984 87.1659 20.016 86.8779 20.048C86.5899 20.08 86.2752 20.1067 85.9339 20.128C85.6032 20.16 85.2725 20.176 84.9419 20.176C84.4725 20.176 84.0405 20.128 83.6459 20.032C83.2512 19.936 82.9099 19.7867 82.6219 19.584C82.3339 19.3707 82.1099 19.0933 81.9499 18.752C81.7899 18.4107 81.7099 18 81.7099 17.52C81.7099 17.0613 81.8005 16.6667 81.9819 16.336C82.1739 16.0053 82.4299 15.7387 82.7499 15.536C83.0699 15.3333 83.4432 15.184 83.8699 15.088C84.2965 14.992 84.7445 14.944 85.2139 14.944C85.3632 14.944 85.5179 14.9547 85.6779 14.976C85.8379 14.9867 85.9872 15.008 86.1259 15.04C86.2752 15.0613 86.4032 15.0827 86.5099 15.104C86.6165 15.1253 86.6912 15.1413 86.7339 15.152V14.736C86.7339 14.4907 86.7072 14.2507 86.6539 14.016C86.6005 13.7707 86.5045 13.5573 86.3659 13.376C86.2272 13.184 86.0352 13.0347 85.7899 12.928C85.5552 12.8107 85.2459 12.752 84.8619 12.752C84.3712 12.752 83.9392 12.7893 83.5659 12.864C83.2032 12.928 82.9312 12.9973 82.7499 13.072L82.5739 11.84C82.7659 11.7547 83.0859 11.6747 83.5339 11.6C83.9819 11.5147 84.4672 11.472 84.9899 11.472ZM96.8532 11.68V12.928H94.1492V20H92.6612V12.928H89.9572V11.68H96.8532ZM101.86 18.96C102.489 18.96 102.985 18.8373 103.348 18.592C103.71 18.3467 103.892 17.952 103.892 17.408C103.892 17.1413 103.838 16.912 103.732 16.72C103.625 16.528 103.476 16.3733 103.284 16.256C103.102 16.128 102.889 16.0373 102.644 15.984C102.398 15.92 102.137 15.888 101.86 15.888C101.572 15.888 101.273 15.8987 100.964 15.92C100.665 15.9307 100.409 15.9627 100.196 16.016V18.88C100.26 18.8907 100.356 18.9013 100.484 18.912C100.612 18.9227 100.75 18.9333 100.9 18.944C101.06 18.944 101.22 18.9493 101.38 18.96C101.55 18.96 101.71 18.96 101.86 18.96ZM98.7075 19.824V11.68H100.196V14.864C100.281 14.8427 100.393 14.8213 100.532 14.8C100.681 14.7787 100.836 14.7573 100.996 14.736C101.166 14.7147 101.342 14.6987 101.524 14.688C101.705 14.6773 101.876 14.672 102.036 14.672C102.494 14.672 102.926 14.7253 103.332 14.832C103.737 14.928 104.089 15.088 104.388 15.312C104.697 15.5253 104.942 15.808 105.124 16.16C105.305 16.5013 105.396 16.912 105.396 17.392C105.396 17.8933 105.31 18.32 105.14 18.672C104.969 19.024 104.724 19.312 104.404 19.536C104.084 19.76 103.7 19.92 103.252 20.016C102.814 20.1227 102.324 20.176 101.78 20.176C101.246 20.176 100.724 20.144 100.212 20.08C99.6995 20.0267 99.1982 19.9413 98.7075 19.824Z" fill="#2B2B3E"/>
</svg>
